<svg xmlns="http://www.w3.org/2000/svg" viewBox="0 0 128 128"><defs><linearGradient id="leaf" x1="0" y1="0" x2="1" y2="1"><stop stop-color="#adc976"/><stop offset=".45" stop-color="#65934a"/><stop offset="1" stop-color="#315741"/></linearGradient><radialGradient id="fruit" cx=".3" cy=".25" r=".8"><stop stop-color="#f3dc94"/><stop offset=".4" stop-color="#65934a"/><stop offset="1" stop-color="#5b6842"/></radialGradient></defs><g transform="translate(60 43) rotate(5)"><path d="M-12 0Q0-9 12 0Q11 38 0 72Q-12 38-12 0Z" fill="#e99540" stroke="#986534" stroke-width="1.4"/><path d="M-7 12L2 14M3 25L9 24M-6 34L1 36M0 47L5 46" stroke="#ffe5b2" stroke-width="1.5" fill="none" opacity=".65"/><path d="M0 1L-2-20M-2-10L-16-22M-1-16L12-31M-1-20L-13-35M-2-20L1-43" stroke="#527947" stroke-width="2.4" fill="none"/><path d="M-13-19L-20-24M-12-22L-21-29M8-27L17-33M-10-30L-18-38M1-35L7-42" stroke="#7fab59" stroke-width="2" fill="none"/></g></svg>