<svg xmlns="http://www.w3.org/2000/svg" viewBox="0 0 128 128"><defs><linearGradient id="leaf" x1="0" y1="0" x2="1" y2="1"><stop stop-color="#adc976"/><stop offset=".45" stop-color="#72a357"/><stop offset="1" stop-color="#315741"/></linearGradient><radialGradient id="fruit" cx=".3" cy=".25" r=".8"><stop stop-color="#f3dc94"/><stop offset=".4" stop-color="#488058"/><stop offset="1" stop-color="#5b6842"/></radialGradient></defs><path d="M37 99Q16 76 26 56Q46 55 54 73M93 97Q117 77 105 59Q85 58 76 74" fill="url(#leaf)" stroke="#365d40" stroke-width="1.6"/><path d="M28 63L45 81M101 66L87 83" stroke="#b3c985" fill="none"/><ellipse cx="64" cy="79" rx="30" ry="36" fill="url(#fruit)" stroke="#42684c" stroke-width="1.6"/><path d="M64 46Q13.600000000000001 79 51.4 113" fill="none" stroke="#f0e5bb" stroke-width="1.5" opacity=".55"/><path d="M64 46Q37 79 57.25 113" fill="none" stroke="#f0e5bb" stroke-width="1.5" opacity=".55"/><path d="M64 46Q64 79 64 113" fill="none" stroke="#f0e5bb" stroke-width="1.5" opacity=".55"/><path d="M64 46Q91 79 70.75 113" fill="none" stroke="#f0e5bb" stroke-width="1.5" opacity=".55"/><path d="M64 46Q114.4 79 76.6 113" fill="none" stroke="#f0e5bb" stroke-width="1.5" opacity=".55"/><path d="M61 48Q58 34 67 30L71 34Q65 38 68 49Z" fill="#6f7950" stroke="#465338" stroke-width="1.5"/></svg>